<?xml version="1.0" encoding="UTF-8" ?>
<!DOCTYPE svg PUBLIC "-//W3C//DTD SVG 1.1//EN" "http://www.w3.org/Graphics/SVG/1.1/DTD/svg11.dtd">
<svg width="1024pt" height="1024pt" viewBox="0 0 1024 1024" version="1.1" xmlns="http://www.w3.org/2000/svg">
<g id="#1f8dd3ff">
<path fill="#1f8dd3" opacity="1.00" d=" M 0.00 0.00 L 512.17 0.00 C 511.96 170.72 512.18 341.44 512.06 512.16 C 506.04 511.92 500.02 512.03 494.00 512.02 C 329.33 512.01 164.67 512.03 0.00 512.01 L 0.00 0.00 M 233.47 246.46 C 232.76 247.23 231.03 248.56 232.46 249.56 C 246.57 263.76 260.78 277.88 274.92 292.06 C 277.09 294.26 279.43 296.30 281.26 298.80 C 264.54 315.06 248.35 331.87 231.63 348.13 C 237.82 355.68 245.56 361.88 251.98 369.27 C 254.48 367.74 256.35 365.45 258.43 363.42 C 270.94 350.92 283.42 338.41 295.93 325.91 C 298.12 323.76 300.14 321.39 302.66 319.60 C 318.90 336.38 335.79 352.56 352.03 369.34 C 359.12 363.02 365.57 355.99 372.36 349.35 C 372.48 349.05 372.72 348.46 372.85 348.16 C 356.56 331.61 340.13 315.16 323.56 298.89 C 324.81 296.76 326.67 295.11 328.42 293.41 C 342.78 279.10 357.05 264.69 371.46 250.43 C 372.11 249.70 373.68 248.59 372.37 247.63 C 366.03 241.30 359.68 234.97 353.36 228.63 C 352.41 227.15 351.16 228.68 350.42 229.42 C 334.54 245.52 318.40 261.35 302.54 277.46 C 288.14 263.54 274.18 249.15 259.94 235.06 C 257.32 232.59 255.06 229.70 252.00 227.75 C 246.04 234.20 239.67 240.26 233.47 246.46 Z" />
<path fill="#1f8dd3" opacity="1.00" d=" M 512.06 512.16 C 516.70 512.38 521.35 512.40 526.00 512.36 C 692.00 512.34 858.00 512.39 1024.00 512.33 L 1024.00 1024.00 L 512.01 1024.00 C 512.15 853.39 512.05 682.77 512.06 512.16 M 710.43 695.20 C 710.14 695.44 709.55 695.93 709.26 696.18 C 688.36 696.26 667.44 696.35 646.54 696.12 C 646.16 706.61 646.54 717.11 646.33 727.61 C 667.65 727.77 688.98 727.62 710.30 727.68 C 710.90 749.22 710.31 770.79 710.60 792.34 C 721.16 792.20 731.73 792.35 742.29 792.28 C 742.45 770.74 742.08 749.20 742.48 727.67 C 763.86 727.66 785.24 727.70 806.62 727.64 C 806.67 717.19 806.62 706.75 806.64 696.30 C 788.43 696.16 770.21 696.29 752.00 696.24 C 748.76 696.19 745.46 696.54 742.29 695.71 C 742.35 674.33 742.30 652.95 742.31 631.57 C 731.76 631.43 721.20 631.63 710.65 631.49 C 710.32 652.72 710.77 673.97 710.43 695.20 Z" />
</g>
<g id="#41a9edff">
<path fill="#41a9ed" opacity="1.00" d=" M 512.17 0.00 L 1024.00 0.00 L 1024.00 512.33 C 858.00 512.39 692.00 512.34 526.00 512.36 C 521.35 512.40 516.70 512.38 512.06 512.16 C 512.18 341.44 511.96 170.72 512.17 0.00 M 646.30 288.23 C 646.31 298.77 646.32 309.31 646.32 319.85 C 699.80 319.82 753.28 319.90 806.75 319.80 C 806.71 309.28 806.73 298.76 806.75 288.25 C 789.84 288.12 772.90 287.24 755.99 288.21 C 749.33 287.95 742.65 287.47 735.99 288.06 C 706.10 288.06 676.20 287.64 646.30 288.23 Z" />
</g>
<g id="#f0f0f0ff">
<path fill="#f0f0f0" opacity="1.00" d=" M 233.47 246.46 C 239.67 240.26 246.04 234.20 252.00 227.75 C 255.06 229.70 257.32 232.59 259.94 235.06 C 274.18 249.15 288.14 263.54 302.54 277.46 C 318.40 261.35 334.54 245.52 350.42 229.42 C 351.16 228.68 352.41 227.15 353.36 228.63 C 359.68 234.97 366.03 241.30 372.37 247.63 C 373.68 248.59 372.11 249.70 371.46 250.43 C 357.05 264.69 342.78 279.10 328.42 293.41 C 326.67 295.11 324.81 296.76 323.56 298.89 C 340.13 315.16 356.56 331.61 372.85 348.16 C 372.72 348.46 372.48 349.05 372.36 349.35 C 365.57 355.99 359.12 363.02 352.03 369.34 C 335.79 352.56 318.90 336.38 302.66 319.60 C 300.14 321.39 298.12 323.76 295.93 325.91 C 283.42 338.41 270.94 350.92 258.43 363.42 C 256.35 365.45 254.48 367.74 251.98 369.27 C 245.56 361.88 237.82 355.68 231.63 348.13 C 248.35 331.87 264.54 315.06 281.26 298.80 C 279.43 296.30 277.09 294.26 274.92 292.06 C 260.78 277.88 246.57 263.76 232.46 249.56 C 231.03 248.56 232.76 247.23 233.47 246.46 Z" />
<path fill="#f0f0f0" opacity="1.00" d=" M 646.30 288.23 C 676.20 287.64 706.10 288.06 735.99 288.06 C 742.65 287.47 749.33 287.95 755.99 288.21 C 772.90 287.24 789.84 288.12 806.75 288.25 C 806.73 298.76 806.71 309.28 806.75 319.80 C 753.28 319.90 699.80 319.82 646.32 319.85 C 646.32 309.31 646.31 298.77 646.30 288.23 Z" />
<path fill="#f0f0f0" opacity="1.00" d=" M 710.43 695.20 C 710.77 673.97 710.32 652.72 710.65 631.49 C 721.20 631.63 731.76 631.43 742.31 631.57 C 742.30 652.95 742.35 674.33 742.29 695.71 C 745.46 696.54 748.76 696.19 752.00 696.24 C 770.21 696.29 788.43 696.16 806.64 696.30 C 806.62 706.75 806.67 717.19 806.62 727.64 C 785.24 727.70 763.86 727.66 742.48 727.67 C 742.08 749.20 742.45 770.74 742.29 792.28 C 731.73 792.35 721.16 792.20 710.60 792.34 C 710.31 770.79 710.90 749.22 710.30 727.68 C 688.98 727.62 667.65 727.77 646.33 727.61 C 646.54 717.11 646.16 706.61 646.54 696.12 C 667.44 696.35 688.36 696.26 709.26 696.18 C 709.55 695.93 710.14 695.44 710.43 695.20 Z" />
<path fill="#f0f0f0" opacity="1.00" d=" M 217.14 674.89 C 266.76 674.56 316.38 674.84 366.00 674.75 C 373.24 674.85 380.49 674.56 387.73 674.93 C 387.57 685.26 387.71 695.59 387.65 705.92 C 342.44 706.20 297.21 705.96 252.00 706.04 C 240.39 705.95 228.78 706.20 217.17 705.91 C 217.18 695.57 217.28 685.23 217.14 674.89 Z" />
<path fill="#f0f0f0" opacity="1.00" d=" M 217.17 749.89 C 269.11 749.67 321.06 749.86 373.00 749.80 C 377.91 749.86 382.82 749.63 387.72 749.94 C 387.58 760.30 387.66 770.67 387.71 781.03 C 330.87 781.21 274.01 781.23 217.16 781.02 C 217.20 770.64 217.25 760.27 217.17 749.89 Z" />
</g>
<g id="#3167ffff">
<path fill="#3167ff" opacity="1.00" d=" M 0.00 512.01 C 164.67 512.03 329.33 512.01 494.00 512.02 C 500.02 512.03 506.04 511.92 512.06 512.16 C 512.05 682.77 512.15 853.39 512.01 1024.00 L 0.00 1024.00 L 0.00 512.01 M 217.14 674.89 C 217.28 685.23 217.18 695.57 217.17 705.91 C 228.78 706.20 240.39 705.95 252.00 706.04 C 297.21 705.96 342.44 706.20 387.65 705.92 C 387.71 695.59 387.57 685.26 387.73 674.93 C 380.49 674.56 373.24 674.85 366.00 674.75 C 316.38 674.84 266.76 674.56 217.14 674.89 M 217.17 749.89 C 217.25 760.27 217.20 770.64 217.16 781.02 C 274.01 781.23 330.87 781.21 387.71 781.03 C 387.66 770.67 387.58 760.30 387.72 749.94 C 382.82 749.63 377.91 749.86 373.00 749.80 C 321.06 749.86 269.11 749.67 217.17 749.89 Z" />
</g>
</svg>
