<?xml version="1.0" encoding="UTF-8" ?>
<!DOCTYPE svg PUBLIC "-//W3C//DTD SVG 1.1//EN" "http://www.w3.org/Graphics/SVG/1.1/DTD/svg11.dtd">
<svg width="1250pt" height="1250pt" viewBox="0 0 1250 1250" version="1.1" xmlns="http://www.w3.org/2000/svg">
<g id="#dddcdcff">
<path fill="#dddcdc" opacity="1.00" d=" M 0.00 0.00 L 625.00 0.00 C 625.00 81.33 625.00 162.67 625.01 244.00 C 625.05 248.01 625.71 251.99 625.73 256.00 C 625.74 339.00 625.52 422.00 625.60 505.00 C 625.85 551.00 625.69 597.00 625.53 643.00 C 625.31 721.67 625.59 800.34 625.52 879.01 C 625.44 883.01 624.84 886.99 624.84 891.01 C 624.95 1010.67 624.75 1130.34 624.95 1250.00 L 0.00 1250.00 L 0.00 0.00 M 359.89 260.06 C 359.61 292.61 359.92 325.17 359.75 357.72 C 327.51 358.04 295.26 357.68 263.02 357.94 C 262.99 373.63 262.99 389.32 263.02 405.02 C 295.27 405.37 327.53 404.89 359.79 405.31 C 359.98 438.18 359.77 471.06 359.89 503.93 C 375.64 503.96 391.39 504.10 407.13 503.86 C 407.60 470.99 407.17 438.09 407.40 405.22 C 440.59 405.03 473.79 405.03 506.98 405.13 C 507.00 389.37 507.01 373.62 506.98 357.87 C 473.81 357.76 440.64 357.98 407.47 357.76 C 407.22 325.20 407.48 292.64 407.32 260.09 C 391.51 259.98 375.70 260.03 359.89 260.06 M 262.81 843.90 C 262.79 859.38 262.81 874.88 262.81 890.37 C 344.26 890.13 425.72 890.42 507.18 890.18 C 507.01 874.22 507.59 858.20 506.89 842.28 C 426.93 842.55 346.97 842.37 267.00 842.38 C 265.65 842.65 262.46 841.44 262.81 843.90 Z" />
<path fill="#dddcdc" opacity="1.00" d=" M 747.72 536.99 C 828.64 537.00 909.55 537.00 990.47 536.99 C 990.38 552.60 991.17 568.24 990.07 583.82 C 915.37 583.40 840.68 583.76 765.98 583.60 C 760.00 583.51 754.02 583.51 748.06 583.79 C 747.05 568.21 747.85 552.59 747.72 536.99 Z" />
<path fill="#dddcdc" opacity="1.00" d=" M 747.95 665.17 C 820.63 665.13 893.32 665.02 966.00 665.13 C 974.18 665.31 982.37 665.06 990.55 665.39 C 990.72 680.90 990.49 696.41 990.69 711.93 C 926.80 712.19 862.90 711.96 799.00 712.04 C 781.91 711.96 764.81 712.21 747.72 711.86 C 747.59 696.31 747.28 680.71 747.95 665.17 Z" />
</g>
<g id="#3b95d2ff">
<path fill="#3b95d2" opacity="1.00" d=" M 625.00 0.00 L 1250.00 0.00 L 1250.00 1250.00 L 624.95 1250.00 C 624.75 1130.34 624.95 1010.67 624.84 891.01 C 624.84 886.99 625.44 883.01 625.52 879.01 C 625.59 800.34 625.31 721.67 625.53 643.00 C 625.69 597.00 625.85 551.00 625.60 505.00 C 625.52 422.00 625.74 339.00 625.73 256.00 C 625.71 251.99 625.05 248.01 625.01 244.00 C 625.00 162.67 625.00 81.33 625.00 0.00 M 747.72 536.99 C 747.85 552.59 747.05 568.21 748.06 583.79 C 754.02 583.51 760.00 583.51 765.98 583.60 C 840.68 583.76 915.37 583.40 990.07 583.82 C 991.17 568.24 990.38 552.60 990.47 536.99 C 909.55 537.00 828.64 537.00 747.72 536.99 M 747.95 665.17 C 747.28 680.71 747.59 696.31 747.72 711.86 C 764.81 712.21 781.91 711.96 799.00 712.04 C 862.90 711.96 926.80 712.19 990.69 711.93 C 990.49 696.41 990.72 680.90 990.55 665.39 C 982.37 665.06 974.18 665.31 966.00 665.13 C 893.32 665.02 820.63 665.13 747.95 665.17 Z" />
</g>
<g id="#738a96ff">
<path fill="#738a96" opacity="1.00" d=" M 359.89 260.06 C 375.70 260.03 391.51 259.98 407.32 260.09 C 407.48 292.64 407.22 325.20 407.47 357.76 C 440.64 357.98 473.81 357.76 506.98 357.87 C 507.01 373.62 507.00 389.37 506.98 405.13 C 473.79 405.03 440.59 405.03 407.40 405.22 C 407.17 438.09 407.60 470.99 407.13 503.86 C 391.39 504.10 375.64 503.96 359.89 503.93 C 359.77 471.06 359.98 438.18 359.79 405.31 C 327.53 404.89 295.27 405.37 263.02 405.02 C 262.99 389.32 262.99 373.63 263.02 357.94 C 295.26 357.68 327.51 358.04 359.75 357.72 C 359.92 325.17 359.61 292.61 359.89 260.06 Z" />
<path fill="#738a96" opacity="1.00" d=" M 262.81 843.90 C 262.46 841.44 265.65 842.65 267.00 842.38 C 346.97 842.37 426.93 842.55 506.89 842.28 C 507.59 858.20 507.01 874.22 507.18 890.18 C 425.72 890.42 344.26 890.13 262.81 890.37 C 262.81 874.88 262.79 859.38 262.81 843.90 Z" />
</g>
</svg>
